<svg xmlns="http://www.w3.org/2000/svg" width="960" height="540" viewBox="0 0 960 540" fill="none" role="img" aria-label="Experience header illustration">
  <defs>
    <linearGradient id="g1" x1="80" y1="520" x2="900" y2="70" gradientUnits="userSpaceOnUse">
      <stop stop-color="#A78BFA" stop-opacity="0.8"/>
      <stop offset="0.55" stop-color="#60A5FA" stop-opacity="0.55"/>
      <stop offset="1" stop-color="#34D399" stop-opacity="0.35"/>
    </linearGradient>
    <radialGradient id="r1" cx="0" cy="0" r="1" gradientUnits="userSpaceOnUse" gradientTransform="translate(650 220) rotate(25) scale(420 300)">
      <stop stop-color="#C4B5FD" stop-opacity="0.45"/>
      <stop offset="1" stop-color="#111827" stop-opacity="0"/>
    </radialGradient>
    <filter id="blur" x="-50%" y="-50%" width="200%" height="200%">
      <feGaussianBlur stdDeviation="16"/>
    </filter>
  </defs>

  <rect width="960" height="540" fill="#0B1220"/>
  <rect x="40" y="40" width="880" height="460" rx="28" fill="url(#r1)" />

  <g filter="url(#blur)" opacity="0.9">
    <path d="M120 360C170 248 264 178 386 176C512 174 584 120 706 122C806 124 870 186 908 266C866 404 768 474 630 474C460 474 318 474 206 474C150 474 122 430 120 360Z" fill="url(#g1)"/>
  </g>

  <g opacity="0.55">
    <path d="M210 132H760" stroke="#93C5FD" stroke-opacity="0.25" stroke-width="10" stroke-linecap="round"/>
    <path d="M210 188H700" stroke="#C4B5FD" stroke-opacity="0.25" stroke-width="10" stroke-linecap="round"/>
    <path d="M210 244H640" stroke="#34D399" stroke-opacity="0.18" stroke-width="10" stroke-linecap="round"/>
    <path d="M210 300H600" stroke="#93C5FD" stroke-opacity="0.18" stroke-width="10" stroke-linecap="round"/>
  </g>

  <g opacity="0.95">
    <rect x="186" y="114" width="28" height="28" rx="8" fill="#60A5FA" fill-opacity="0.8"/>
    <rect x="186" y="170" width="28" height="28" rx="8" fill="#A78BFA" fill-opacity="0.75"/>
    <rect x="186" y="226" width="28" height="28" rx="8" fill="#34D399" fill-opacity="0.7"/>
    <rect x="186" y="282" width="28" height="28" rx="8" fill="#60A5FA" fill-opacity="0.6"/>
  </g>
</svg>

